# xmcd
#
# Track frame offsets: 
#        150
#        12840
#        28200
#        45725
#        57820
#        72702
#        89900
#        107865
#        127080
#        138925
#
# Disc length: 2105 seconds
#
# Revision: 3
# Processed by: cddbd v1.5.2PL0 Copyright (c) Steve Scherf et al.
# Submitted via: ExactAudioCopy v0.99pb5
#
DISCID=9708370a
DTITLE=John Michael Montgomery - What I Do The Best
DYEAR=1996
DGENRE=Country
TTITLE0=Ain't Got Nothin' On Us
TTITLE1=A Few Cents Short
TTITLE2=Friends
TTITLE3=Lucky Arms
TTITLE4=What I Do the Best
TTITLE5=Cloud 8
TTITLE6=I Can Prove You Wrong
TTITLE7=How Was I to Know
TTITLE8=Paint the Town Redneck
TTITLE9=I Miss You a Little
EXTD=
EXTT0=
EXTT1=
EXTT2=
EXTT3=
EXTT4=
EXTT5=
EXTT6=
EXTT7=
EXTT8=
EXTT9=
PLAYORDER=
